<svg width="1072" height="761" viewBox="0 0 1072 761" fill="none" xmlns="http://www.w3.org/2000/svg">
<g id="undraw_decorative_friends_q2np 1">
<g clip-path="url(#clip0)">
<path id="backdrop" d="M910 -48H22V677H910V-48Z" fill="#D0CDE1"/>
<path id="ball" d="M683.668 670.336C727.668 670.336 763.336 634.668 763.336 590.668C763.336 546.669 727.668 511 683.668 511C639.669 511 604 546.669 604 590.668C604 634.668 639.669 670.336 683.668 670.336Z" fill="#7F72D0"/>
<path id="baseline" d="M1072 670H0V672H1072V670Z" fill="#3F3D56"/>
<path id="cat-fluff" d="M497 668H178C178 641.006 189.003 615.117 208.588 596.029C228.173 576.941 254.737 566.218 282.434 566.218C340.559 548.561 416.379 554.226 497 566.218V668Z" fill="#FF6584"/>
<path id="cat-paw-behind" d="M452.613 645.364H598.691C599.905 645.364 601.108 645.603 602.229 646.067C603.351 646.532 604.37 647.213 605.229 648.071C606.087 648.93 606.768 649.949 607.233 651.071C607.698 652.193 607.937 653.395 607.937 654.609V654.609C607.937 657.061 606.963 659.413 605.229 661.146C603.495 662.88 601.143 663.854 598.691 663.854H452.613V645.364Z" fill="#3F3D56"/>
<path id="cat-ear" d="M477.913 478.811L517.068 431.348C517.97 429.466 519.424 427.903 521.237 426.867C523.049 425.832 525.134 425.372 527.214 425.55C529.293 425.729 531.27 426.536 532.88 427.865C534.489 429.194 535.656 430.982 536.225 432.99L551.666 487.506L477.913 478.811Z" fill="#3F3D56"/>
<path id="cat-ear_2" d="M430.424 502.984L445.217 443.26C445.217 441.172 445.853 439.134 447.039 437.417C448.226 435.699 449.907 434.384 451.86 433.646C453.812 432.908 455.944 432.781 457.97 433.284C459.996 433.787 461.821 434.894 463.202 436.459L500.69 478.946L430.424 502.984Z" fill="#FF6584"/>
<path id="cat-tail" d="M213.796 664.274L212.565 647L119.021 653.664C113.24 654.075 107.548 654.93 102.269 656.178C96.9895 657.427 92.2273 659.045 88.2539 660.94C84.2804 662.836 81.1735 664.971 79.1105 667.224C77.0475 669.477 76.0689 671.805 76.2305 674.073V674.073L213.796 664.274L213.796 664.274Z" fill="#FF6584"/>
<path id="cat-paw" d="M449 650H595.078C596.292 650 597.494 650.239 598.616 650.704C599.738 651.168 600.757 651.849 601.616 652.708C602.474 653.566 603.155 654.586 603.62 655.707C604.084 656.829 604.323 658.031 604.323 659.245C604.323 660.46 604.084 661.662 603.62 662.783C603.155 663.905 602.474 664.924 601.616 665.783C600.757 666.641 599.738 667.322 598.616 667.787C597.494 668.252 596.292 668.491 595.078 668.491H449V650Z" fill="#FF6584"/>
<path id="cat-head" d="M496.991 667.553C552.137 667.553 596.842 622.848 596.842 567.702C596.842 512.556 552.137 467.851 496.991 467.851C441.845 467.851 397.141 512.556 397.141 567.702C397.141 622.848 441.845 667.553 496.991 667.553Z" fill="#FF6584"/>
<path id="cat-nose" d="M593.144 600.985C599.271 600.985 604.238 589.395 604.238 575.098C604.238 560.801 599.271 549.211 593.144 549.211C587.017 549.211 582.049 560.801 582.049 575.098C582.049 589.395 587.017 600.985 593.144 600.985Z" fill="#3F3D56"/>
<path id="cat-eye" d="M566.332 554.758C567.864 554.758 569.106 551.861 569.106 548.286C569.106 544.712 567.864 541.815 566.332 541.815C564.8 541.815 563.559 544.712 563.559 548.286C563.559 551.861 564.8 554.758 566.332 554.758Z" fill="#3F3D56"/>
<path id="cat-eye_2" d="M586.672 541.815C588.204 541.815 589.446 538.917 589.446 535.343C589.446 531.768 588.204 528.871 586.672 528.871C585.14 528.871 583.898 531.768 583.898 535.343C583.898 538.917 585.14 541.815 586.672 541.815Z" fill="#3F3D56"/>
<path id="cat-hair" d="M488.614 466.74C488.614 466.74 483.064 457.086 483.064 451.197Z" fill="#3F3D56"/>
<path id="cat-hair_2" d="M491.055 460.496C491.055 460.496 494.079 449.779 498.291 445.662Z" fill="#3F3D56"/>
</g>
</g>
<defs>
<clipPath id="clip0">
<rect width="1072" height="760.007" fill="white"/>
</clipPath>
</defs>
</svg>
