<svg width="766" height="687" viewBox="0 0 766 687" fill="none" xmlns="http://www.w3.org/2000/svg">
<g id="Yay Balloons SVG Cut File 1">
<g id="Group">
<g id="Group_2">
<g id="pink-dot">
<path id="Vector" d="M583.558 412.806C584.121 407.224 579.53 402.289 573.304 401.782C567.079 401.275 561.576 405.388 561.014 410.97C560.451 416.551 565.042 421.487 571.267 421.994C577.493 422.501 582.996 418.388 583.558 412.806Z" fill="#FAD4E2"/>
<path id="Vector_2" d="M421.583 462.196C428.717 456.217 429.091 446.183 422.42 439.784C415.748 433.386 404.557 433.045 397.423 439.024C390.29 445.003 389.915 455.036 396.587 461.435C403.259 467.834 414.45 468.174 421.583 462.196Z" fill="#FAD4E2"/>
<path id="Vector_3" d="M581.559 215.157C587.401 214.111 591.19 209.017 590.02 203.778C588.851 198.539 583.167 195.14 577.324 196.186C571.482 197.232 567.694 202.327 568.863 207.566C570.033 212.804 575.717 216.203 581.559 215.157Z" fill="#FAD4E2"/>
<path id="Vector_4" d="M235.3 483.5C249.459 483.217 260.676 472.697 260.355 460.002C260.033 447.307 248.294 437.245 234.135 437.527C219.976 437.809 208.759 448.329 209.081 461.024C209.402 473.719 221.141 483.782 235.3 483.5Z" fill="#FAD4E2"/>
<path id="Vector_5" d="M151.279 371.576C161.259 365.123 163.511 352.635 156.309 343.684C149.107 334.733 135.178 332.708 125.198 339.161C115.218 345.614 112.966 358.101 120.168 367.052C127.37 376.004 141.299 378.029 151.279 371.576Z" fill="#FAD4E2"/>
<path id="Vector_6" d="M378.187 400.953C390.068 395.832 395.064 383.042 389.346 372.387C383.629 361.732 369.362 357.246 357.481 362.368C345.6 367.489 340.603 380.279 346.321 390.934C352.039 401.589 366.306 406.075 378.187 400.953Z" fill="#FAD4E2"/>
<path id="Vector_7" d="M272.545 511.259C275.358 506.452 273.29 500.509 267.927 497.985C262.564 495.461 255.937 497.312 253.124 502.119C250.312 506.926 252.379 512.869 257.742 515.393C263.105 517.917 269.732 516.067 272.545 511.259Z" fill="#FAD4E2"/>
<path id="Vector_8" d="M372.327 127.667C376.132 118.474 370.903 108.251 360.647 104.835C350.391 101.419 338.992 106.103 335.187 115.296C331.382 124.49 336.611 134.712 346.867 138.128C357.123 141.545 368.521 136.861 372.327 127.667Z" fill="#FAD4E2"/>
<path id="Vector_9" d="M624.502 244.611C627.618 237.808 623.991 230.025 616.401 227.229C608.812 224.432 600.133 227.681 597.018 234.484C593.903 241.287 597.53 249.07 605.119 251.866C612.709 254.663 621.387 251.415 624.502 244.611Z" fill="#FAD4E2"/>
<path id="Vector_10" d="M218.126 366.365C224.719 362.609 226.666 354.77 222.474 348.856C218.281 342.943 209.537 341.193 202.943 344.949C196.35 348.706 194.403 356.544 198.596 362.458C202.788 368.372 211.532 370.121 218.126 366.365Z" fill="#FAD4E2"/>
<path id="Vector_11" d="M254.878 198.111C266.208 189.927 267.989 175.055 258.856 164.892C249.723 154.73 233.134 153.125 221.804 161.309C210.474 169.493 208.693 184.366 217.826 194.529C226.959 204.691 243.548 206.295 254.878 198.111Z" fill="#FAD4E2"/>
</g>
<g id="black-dot">
<path id="vector" d="M586.312 473.137C593.91 470.605 597.776 463.029 594.948 456.216C592.12 449.402 583.668 445.932 576.07 448.465C568.473 450.997 564.606 458.573 567.434 465.386C570.263 472.2 578.714 475.67 586.312 473.137Z" fill="#2A2A2C"/>
<path id="Vector_12" d="M511.447 537.833C513.359 527.022 505.132 516.865 493.074 515.146C481.015 513.427 469.69 520.798 467.779 531.609C465.867 542.42 474.094 552.577 486.152 554.296C498.211 556.015 509.536 548.644 511.447 537.833Z" fill="#2A2A2C"/>
<path id="Vector_13" d="M268.968 141.403C270.944 137.399 268.925 132.717 264.459 130.944C259.992 129.17 254.771 130.979 252.795 134.982C250.82 138.985 252.839 143.668 257.305 145.441C261.771 147.214 266.993 145.406 268.968 141.403Z" fill="#2A2A2C"/>
<path id="Vector_14" d="M175.234 270.692C186.242 266.382 191.265 254.886 186.454 245.015C181.642 235.143 168.818 230.633 157.81 234.942C146.802 239.252 141.778 250.748 146.59 260.62C151.401 270.491 164.226 275.001 175.234 270.692Z" fill="#2A2A2C"/>
<path id="Vector_15" d="M519.47 150.043C521.331 141.179 514.826 132.638 504.939 130.964C495.052 129.291 485.529 135.12 483.667 143.983C481.806 152.847 488.311 161.389 498.198 163.062C508.085 164.735 517.608 158.906 519.47 150.043Z" fill="#2A2A2C"/>
<path id="Vector_16" d="M186.734 219.443C195.953 217.915 202.042 209.975 200.334 201.708C198.626 193.441 189.768 187.978 180.548 189.505C171.328 191.033 165.239 198.973 166.947 207.24C168.655 215.507 177.514 220.97 186.734 219.443Z" fill="#2A2A2C"/>
<path id="Vector_17" d="M555.626 187.808C561.782 183.356 562.744 175.27 557.775 169.748C552.806 164.226 543.788 163.359 537.632 167.812C531.475 172.265 530.513 180.35 535.482 185.872C540.451 191.394 549.47 192.261 555.626 187.808Z" fill="#2A2A2C"/>
<path id="Vector_18" d="M497.765 200.431C502.089 193.671 499.481 185.046 491.94 181.166C484.398 177.286 474.78 179.62 470.456 186.38C466.132 193.139 468.74 201.765 476.282 205.645C483.823 209.525 493.441 207.19 497.765 200.431Z" fill="#2A2A2C"/>
<path id="Vector_19" d="M277.542 280.241C279.368 275.619 276.668 270.543 271.512 268.903C266.356 267.264 260.696 269.682 258.87 274.304C257.044 278.926 259.744 284.002 264.9 285.641C270.055 287.281 275.716 284.863 277.542 280.241Z" fill="#2A2A2C"/>
<path id="Vector_20" d="M337.03 224.13C342.106 222.082 344.368 216.731 342.081 212.179C339.795 207.626 333.826 205.596 328.749 207.644C323.673 209.692 321.411 215.042 323.698 219.595C325.985 224.147 331.953 226.178 337.03 224.13Z" fill="#2A2A2C"/>
<path id="Vector_21" d="M362.324 530.338C362.64 520.184 353.715 511.718 342.389 511.429C331.063 511.14 321.625 519.138 321.309 529.293C320.992 539.448 329.917 547.914 341.243 548.202C352.569 548.491 362.007 540.493 362.324 530.338Z" fill="#2A2A2C"/>
</g>
<g id="golden-dot">
<path id="Vector_22" d="M142.766 301.213C145.307 294.867 141.628 287.873 134.55 285.592C127.471 283.311 119.672 286.606 117.131 292.952C114.591 299.298 118.269 306.291 125.348 308.572C132.427 310.854 140.225 307.559 142.766 301.213Z" fill="#C9B38C"/>
<path id="Vector_23" d="M460.031 566.134C461.868 557.356 455.419 548.902 445.627 547.251C435.835 545.6 426.409 551.378 424.573 560.156C422.736 568.935 429.185 577.389 438.977 579.04C448.768 580.691 458.195 574.913 460.031 566.134Z" fill="#C9B38C"/>
<path id="Vector_24" d="M312.095 504.191C314.733 499.697 312.807 494.135 307.793 491.768C302.78 489.401 296.577 491.126 293.94 495.62C291.303 500.114 293.229 505.675 298.243 508.042C303.256 510.409 309.458 508.684 312.095 504.191Z" fill="#C9B38C"/>
<path id="Vector_25" d="M287.643 557.785C292.785 554.759 294.216 548.566 290.838 543.953C287.46 539.341 280.553 538.055 275.41 541.082C270.267 544.108 268.836 550.301 272.214 554.913C275.592 559.526 282.5 560.811 287.643 557.785Z" fill="#C9B38C"/>
<path id="Vector_26" d="M571.059 374.521C578.969 374.39 585.26 368.534 585.11 361.442C584.959 354.349 578.425 348.706 570.515 348.838C562.605 348.969 556.314 354.825 556.464 361.917C556.615 369.01 563.149 374.653 571.059 374.521Z" fill="#C9B38C"/>
<path id="Vector_27" d="M556.444 525.889C561.499 517.891 558.364 507.73 549.441 503.194C540.519 498.658 529.187 501.464 524.132 509.462C519.077 517.46 522.212 527.621 531.135 532.157C540.058 536.693 551.389 533.887 556.444 525.889Z" fill="#C9B38C"/>
<path id="Vector_28" d="M420.66 131.534C425.686 125.502 424.305 116.957 417.574 112.447C410.844 107.938 401.314 109.172 396.288 115.204C391.261 121.236 392.643 129.782 399.373 134.291C406.103 138.801 415.633 137.566 420.66 131.534Z" fill="#C9B38C"/>
<path id="Vector_29" d="M471.833 484.866C476.258 481.291 476.611 475.175 472.622 471.205C468.632 467.236 461.81 466.917 457.385 470.492C452.96 474.067 452.607 480.183 456.597 484.153C460.586 488.122 467.408 488.441 471.833 484.866Z" fill="#C9B38C"/>
<path id="Vector_30" d="M620.757 446.095C627.189 444.022 630.527 437.665 628.212 431.897C625.897 426.128 618.805 423.132 612.372 425.205C605.939 427.279 602.601 433.636 604.917 439.404C607.232 445.173 614.324 448.169 620.757 446.095Z" fill="#C9B38C"/>
<path id="Vector_31" d="M530.45 239.224C535.913 234.217 535.814 226.186 530.227 221.285C524.641 216.384 515.684 216.47 510.22 221.476C504.757 226.482 504.856 234.514 510.442 239.415C516.029 244.315 524.986 244.23 530.45 239.224Z" fill="#C9B38C"/>
<path id="Vector_32" d="M341.319 270.668C347.609 268.758 350.953 262.57 348.788 256.846C346.623 251.123 339.769 248.032 333.479 249.942C327.189 251.852 323.845 258.04 326.01 263.764C328.175 269.487 335.029 272.578 341.319 270.668Z" fill="#C9B38C"/>
<path id="Vector_33" d="M354.698 485.602C359.672 482.827 361.194 476.96 358.097 472.499C354.999 468.037 348.456 466.67 343.481 469.445C338.507 472.22 336.985 478.086 340.082 482.548C343.18 487.009 349.723 488.377 354.698 485.602Z" fill="#C9B38C"/>
<path id="Vector_34" d="M583.817 260.175C584.71 252.071 578.107 244.848 569.068 244.043C560.029 243.238 551.977 249.155 551.083 257.259C550.189 265.363 556.792 272.585 565.831 273.39C574.871 274.196 582.923 268.279 583.817 260.175Z" fill="#C9B38C"/>
<path id="Vector_35" d="M155.965 425.482C163.439 419.063 163.692 408.423 156.529 401.718C149.365 395.014 137.499 394.782 130.024 401.201C122.55 407.621 122.297 418.26 129.46 424.965C136.624 431.67 148.49 431.901 155.965 425.482Z" fill="#C9B38C"/>
<path id="Vector_36" d="M181.418 476.524C190.396 471.399 193.038 460.716 187.317 452.663C181.596 444.61 169.68 442.237 160.701 447.363C151.723 452.488 149.082 463.171 154.802 471.224C160.523 479.276 172.439 481.649 181.418 476.524Z" fill="#C9B38C"/>
<path id="Vector_37" d="M344.079 447.738C354.812 447.306 363.119 439.154 362.632 429.531C362.145 419.907 353.049 412.456 342.316 412.888C331.583 413.32 323.276 421.471 323.763 431.095C324.25 440.718 333.346 448.17 344.079 447.738Z" fill="#C9B38C"/>
<path id="Vector_38" d="M447.427 512.648C448.57 505.011 442.59 497.985 434.071 496.957C425.552 495.929 417.72 501.287 416.577 508.925C415.434 516.562 421.414 523.587 429.933 524.616C438.452 525.644 446.284 520.286 447.427 512.648Z" fill="#C9B38C"/>
<path id="Vector_39" d="M300.903 233.789C300.971 226.783 294.692 221.052 286.878 220.988C279.064 220.924 272.675 226.552 272.608 233.557C272.54 240.563 278.819 246.294 286.633 246.358C294.447 246.422 300.836 240.795 300.903 233.789Z" fill="#C9B38C"/>
<path id="Vector_40" d="M521.331 488.879C530.407 488.552 537.466 481.69 537.097 473.552C536.728 465.415 529.071 459.083 519.995 459.41C510.919 459.736 503.86 466.598 504.229 474.736C504.598 482.874 512.255 489.206 521.331 488.879Z" fill="#C9B38C"/>
<path id="Vector_41" d="M404.44 571.544C411.271 566.046 411.835 556.622 405.699 550.495C399.564 544.368 389.053 543.857 382.222 549.355C375.391 554.853 374.827 564.277 380.962 570.405C387.097 576.532 397.609 577.042 404.44 571.544Z" fill="#C9B38C"/>
<path id="Vector_42" d="M196.065 327.503C206.478 321.305 209.311 308.709 202.393 299.37C195.475 290.031 181.425 287.485 171.012 293.683C160.599 299.882 157.766 312.477 164.684 321.816C171.603 331.156 185.652 333.702 196.065 327.503Z" fill="#C9B38C"/>
<path id="Vector_43" d="M241.412 241.508C244.381 236.676 242.418 230.6 237.028 227.936C231.638 225.272 224.862 227.03 221.893 231.861C218.925 236.693 220.888 242.769 226.278 245.433C231.668 248.096 238.444 246.339 241.412 241.508Z" fill="#C9B38C"/>
</g>
<g id="gray-dot">
<path id="Vector_44" d="M498.908 273.786C499.341 270.569 496.784 267.646 493.196 267.256C489.608 266.866 486.349 269.158 485.916 272.375C485.483 275.591 488.041 278.515 491.629 278.904C495.216 279.294 498.476 277.002 498.908 273.786Z" fill="#CDCCCC"/>
<path id="Vector_45" d="M531.686 436.34C534.692 433.467 534.531 428.951 531.324 426.254C528.118 423.557 523.082 423.7 520.075 426.573C517.069 429.446 517.231 433.962 520.437 436.659C523.643 439.356 528.679 439.213 531.686 436.34Z" fill="#CDCCCC"/>
<path id="Vector_46" d="M481.814 448.516C484.935 446.884 485.949 443.231 484.078 440.356C482.208 437.481 478.161 436.473 475.04 438.105C471.918 439.737 470.905 443.39 472.775 446.265C474.646 449.14 478.693 450.148 481.814 448.516Z" fill="#CDCCCC"/>
<path id="Vector_47" d="M315.221 141.182C319.592 135.377 317.886 127.492 311.41 123.57C304.934 119.648 296.14 121.174 291.769 126.978C287.397 132.783 289.104 140.668 295.58 144.59C302.056 148.512 310.849 146.986 315.221 141.182Z" fill="#CDCCCC"/>
<path id="Vector_48" d="M361.399 576.929C361.451 573.426 358.327 570.547 354.421 570.498C350.514 570.45 347.305 573.249 347.252 576.752C347.2 580.254 350.324 583.133 354.23 583.182C358.137 583.231 361.346 580.431 361.399 576.929Z" fill="#CDCCCC"/>
<path id="Vector_49" d="M247.059 538.372C249.127 533.738 246.613 528.477 241.444 526.62C236.275 524.764 230.408 527.016 228.34 531.65C226.272 536.283 228.786 541.544 233.955 543.401C239.124 545.257 244.991 543.005 247.059 538.372Z" fill="#CDCCCC"/>
<path id="Vector_50" d="M584.02 500.387C587.125 497.724 587.233 493.308 584.262 490.523C581.291 487.738 576.365 487.638 573.26 490.301C570.155 492.964 570.047 497.38 573.018 500.165C575.99 502.95 580.915 503.049 584.02 500.387Z" fill="#CDCCCC"/>
<path id="Vector_51" d="M461.778 138.422C467.431 135.299 469.189 128.657 465.703 123.586C462.217 118.516 454.808 116.937 449.155 120.06C443.501 123.182 441.743 129.825 445.229 134.895C448.715 139.966 456.124 141.545 461.778 138.422Z" fill="#CDCCCC"/>
<path id="Vector_52" d="M318.319 574.343C321.693 572.958 323.175 569.383 321.629 566.357C320.082 563.331 316.094 562 312.719 563.385C309.345 564.77 307.863 568.346 309.409 571.372C310.956 574.398 314.945 575.728 318.319 574.343Z" fill="#CDCCCC"/>
<path id="Vector_53" d="M302.863 465.741C309.619 462.586 312.241 455.117 308.719 449.058C305.198 442.999 296.866 440.645 290.11 443.799C283.354 446.954 280.732 454.423 284.253 460.482C287.775 466.541 296.107 468.896 302.863 465.741Z" fill="#CDCCCC"/>
<path id="Vector_54" d="M639.593 290.28C642.579 282.589 638.045 274.181 629.466 271.5C620.887 268.819 611.512 272.88 608.526 280.57C605.539 288.261 610.073 296.669 618.652 299.35C627.231 302.032 636.607 297.971 639.593 290.28Z" fill="#CDCCCC"/>
<path id="Vector_55" d="M590.205 314.558C591.417 306.752 585.341 299.54 576.635 298.45C567.929 297.36 559.888 302.804 558.676 310.61C557.465 318.415 563.54 325.627 572.247 326.717C580.953 327.807 588.993 322.363 590.205 314.558Z" fill="#CDCCCC"/>
<path id="Vector_56" d="M214.946 407.465C217.071 397.934 210.175 388.659 199.544 386.749C188.912 384.838 178.571 391.017 176.446 400.548C174.32 410.079 181.216 419.354 191.847 421.264C202.479 423.174 212.82 416.996 214.946 407.465Z" fill="#CDCCCC"/>
<path id="Vector_57" d="M401.3 240.424C407.974 234.034 407.604 223.999 400.473 218.012C393.343 212.025 382.152 212.352 375.477 218.742C368.803 225.133 369.173 235.167 376.303 241.154C383.434 247.141 394.625 246.814 401.3 240.424Z" fill="#CDCCCC"/>
<path id="Vector_58" d="M468.23 240.278C470.933 231.409 465.105 222.25 455.211 219.822C445.318 217.394 435.106 222.616 432.403 231.485C429.699 240.354 435.528 249.513 445.421 251.941C455.315 254.369 465.526 249.147 468.23 240.278Z" fill="#CDCCCC"/>
<path id="Vector_59" d="M209.676 513.45C214.072 509.847 214.377 503.729 210.356 499.786C206.335 495.842 199.512 495.566 195.115 499.169C190.718 502.772 190.414 508.89 194.435 512.834C198.455 516.777 205.279 517.054 209.676 513.45Z" fill="#CDCCCC"/>
<path id="Vector_60" d="M624.652 405.698C635.59 405.608 644.373 397.585 644.268 387.778C644.162 377.97 635.21 370.092 624.272 370.182C613.333 370.271 604.551 378.294 604.656 388.102C604.761 397.909 613.713 405.787 624.652 405.698Z" fill="#CDCCCC"/>
<path id="Vector_61" d="M640.997 350.864C649.97 345.73 652.598 335.045 646.867 326.998C641.137 318.951 629.218 316.59 620.246 321.724C611.274 326.858 608.646 337.543 614.376 345.59C620.106 353.637 632.025 355.998 640.997 350.864Z" fill="#CDCCCC"/>
<path id="Vector_62" d="M390.979 510.621C397.03 509.217 400.664 503.681 399.096 498.255C397.527 492.829 391.351 489.568 385.3 490.971C379.249 492.375 375.615 497.912 377.183 503.338C378.751 508.763 384.928 512.024 390.979 510.621Z" fill="#CDCCCC"/>
<path id="Vector_63" d="M376.552 191.551C386.597 187.248 390.845 176.456 386.04 167.447C381.235 158.439 369.197 154.625 359.152 158.929C349.106 163.232 344.858 174.024 349.663 183.032C354.468 192.041 366.507 195.855 376.552 191.551Z" fill="#CDCCCC"/>
<path id="vector_2" d="M312.363 185.106C314.903 180.764 313.034 175.396 308.19 173.117C303.345 170.839 297.36 172.511 294.82 176.854C292.281 181.196 294.15 186.564 298.994 188.843C303.839 191.121 309.824 189.448 312.363 185.106Z" fill="#CDCCCC"/>
<path id="Vector_64" d="M438.348 186.37C443.156 181.652 442.786 174.33 437.521 170.017C432.256 165.704 424.091 166.032 419.283 170.75C414.474 175.469 414.844 182.79 420.109 187.103C425.374 191.417 433.539 191.088 438.348 186.37Z" fill="#CDCCCC"/>
</g>
</g>
<g id="Illustration x5F sans x5F titre 82.tiff">
<g id="Group_3">
<path id="letters" d="M299.572 322.545C298.686 323.019 287.689 338.058 267.876 340.552C235.503 344.603 220.537 314.126 221.135 283.366C221.141 280.67 221.324 277.975 221.683 275.439C222.401 270.683 226.83 267.363 232.135 267.375C237.794 267.387 242.383 271.837 242.018 276.91C241.837 278.813 241.656 280.715 241.652 282.618C241.08 301.644 247.745 326.554 266.856 321.839C288.266 316.653 293.279 288.915 295.944 283.371C300.03 274.976 311.701 275.636 315.399 282.78C316.456 284.685 316.633 284.368 319.91 322.589C320.44 322.591 319.378 322.905 337.086 312.796C351.252 304.74 349.833 306.482 350.189 305.372C353.221 293.804 359.432 284.303 370.588 277.51C388.829 266.133 405.255 275.683 406.14 275.685C406.319 274.417 406.499 273.149 406.855 272.039C408.634 267.445 413.768 264.761 418.895 265.882C424.021 267.003 427.371 271.45 426.653 276.206C424.32 291.74 421.412 327.728 429.34 341.382C429.692 342.017 430.045 342.652 430.574 343.129C441.917 331.895 451.369 295.922 451.902 294.813C452.08 294.338 452.468 278.799 452.469 278.324C452.479 274.042 455.493 270.561 459.74 269.301C465.934 267.571 472.468 271.549 472.809 277.417C473.323 285.188 468.642 322.599 481.179 331.823C482.062 332.459 482.946 332.303 485.072 330.722C491.448 326.296 498.013 316.638 501.741 310.145C508.133 298.584 510.809 288.124 513.304 279.567C514.907 274.338 518.628 270.858 524.641 271.029C529.062 271.198 532.24 273.425 533.824 277.075C536.112 281.996 536.413 305.94 536.402 311.014C535.578 364.29 523.176 374.252 525.647 376.636C530.059 381.086 534.116 385.534 537.82 390.299C541.347 394.905 544.169 398.559 542.39 403.153C540.967 406.797 538.133 409.011 533.887 409.477C525.75 410.252 523.641 404.222 520.467 400.092C518.704 397.71 516.763 395.644 514.822 393.42C513.407 393.734 501.336 414.321 466.829 423.442C424.36 434.607 394.896 402.671 422.726 373.556C443.997 351.404 477.773 352.746 507.105 364.227C507.282 364.228 507.458 364.387 507.812 364.387C512.26 352.029 514.057 339.348 515.146 326.348C513.552 327.613 493.847 361.344 469.827 346.703C464.529 343.52 461.885 339.55 459.065 334.946C458.002 335.736 449.283 359.978 432.301 362.002C423.456 363.092 416.923 358.48 412.34 351.493C407.757 344.506 406.534 337.843 405.308 332.449C404.6 332.606 400.165 338.622 392.019 343.678C379.977 351.104 366.889 351.551 356.829 342.015C350.299 335.817 349.254 328.362 348.725 327.727C348.018 327.884 327.653 340.049 321.456 343.365C319.331 344.47 325.965 383.809 301.682 408.65C295.124 415.296 287.331 420.511 277.951 423.662C248.217 434.062 227.57 413.72 235.76 388.368C243.417 364.759 275.287 348.021 298.839 334.277C300.078 333.487 299.724 333.645 299.21 326.191C299.743 325.241 299.745 323.972 299.572 322.545ZM499.284 381.969C499.816 381.336 499.64 381.336 499.11 381.018C487.095 375.917 467.826 372.386 454.376 376.321C438.272 381.043 424.084 399.564 440.341 405.625C458.718 412.483 487.046 398.275 499.284 381.969ZM300.913 356.005C300.383 356.004 277.008 369.589 267.616 378.131C260.883 384.142 254.676 392.056 255.187 400.62C256.044 412.99 271.795 408.268 281.183 401.47C296.593 390.404 299.46 373.603 300.913 356.005ZM383.998 291.651C380.103 293.704 376.914 296.393 374.607 299.876C369.638 307.793 366.426 320.472 371.185 328.093C373.123 331.269 375.068 331.432 377.9 330.328C379.847 329.539 381.618 328.433 383.213 327.168C392.071 320.211 397.043 310.866 401.132 301.044C401.488 300.252 401.312 299.618 400.96 298.824C399.55 296.601 395.669 292.47 394.608 291.992C390.898 290.557 387.362 289.915 383.998 291.651ZM454.058 360.305C445.918 362.19 427.686 369.761 425.195 376.574C424.306 378.951 425.542 379.905 426.958 379.274C429.79 378.17 447.881 354.425 489.949 364.665C493.485 365.466 494.373 363.406 492.961 362.293C491.019 360.703 471.752 356.221 454.058 360.305ZM287.847 346.304C283.247 347.087 253.316 366.683 251.359 372.387C251.002 373.655 252.061 374.767 253.653 374.295C255.777 373.507 254.186 373.186 268.535 362.435C281.29 352.791 287.307 350.901 289.433 349.003C289.611 348.686 289.439 346.149 287.847 346.304ZM356.918 301.74C360.276 302.699 359.948 290.647 377.3 281.33C379.779 279.908 378.548 276.893 376.069 278.156C375.538 278.313 374.829 279.105 374.298 279.421C365.798 284.317 358.883 292.548 356.572 298.092C355.862 299.201 355.327 301.261 356.918 301.74ZM515.943 285.598C516.47 287.502 519.299 287.667 520.187 285.925C520.897 284.499 521.263 278.95 524.451 277.054C526.045 276.107 523.752 273.247 520.388 274.826C519.149 275.457 518.263 276.248 517.553 277.356C515.777 280.682 515.592 284.488 515.943 285.598ZM454.758 283.086C454.933 284.037 455.639 284.673 456.523 284.675C460.06 284.524 455.656 276.586 461.32 274.537C463.621 273.75 462.564 272.003 460.795 271.999C458.319 271.994 455.838 274.367 455.125 276.902C454.769 278.011 454.408 281.341 454.758 283.086ZM300.702 290.993C301.413 289.25 302.126 287.032 304.076 284.816C304.785 284.184 305.847 283.393 304.966 282.123C304.438 281.17 303.2 280.85 301.96 281.957C299.657 283.855 298.413 286.389 297.523 288.925C296.454 292.728 299.636 293.369 300.702 290.993ZM223.787 283.847C223.958 286.385 227.142 286.233 227.5 284.331C227.501 284.014 227.501 283.697 227.502 283.38C227.162 277.195 227.87 277.038 227.695 275.928C227.523 273.866 224.517 273.383 223.803 276.395C223.264 280.516 223.791 282.262 223.787 283.847ZM421.536 271.12C419.594 269.53 414.464 270.312 412.336 272.844C411.449 273.794 411.093 275.061 412.329 275.698C414.449 277.13 416.05 272.535 419.231 273.811C419.584 273.97 423.301 272.551 421.536 271.12Z" fill="#2A2A2C"/>
</g>
</g>
</g>
</g>
</svg>
